<svg width="201" height="172" viewBox="0 0 201 172" fill="none" xmlns="http://www.w3.org/2000/svg">
<g clip-path="url(#clip0_71_1812)">
<path d="M71.7712 99.9093C78.6253 88.026 91.6995 78.9015 105.54 79.7805C95.3307 90.7223 89.3777 104.871 88.7338 119.722C88.5065 125.45 88.859 131.845 84.9999 136.135C82.5987 138.804 78.9285 140.096 75.3198 140.367C71.711 140.638 68.103 139.996 64.5424 139.356L63.6787 139.617C63.3499 125.952 64.9172 111.793 71.7712 99.9093Z" fill="#F0F0F0"/>
<path d="M105.56 80.0667C95.3257 84.9227 86.5988 93.0327 81.2417 102.924C80.0835 105.062 79.0974 107.33 78.6672 109.729C78.2369 112.129 78.5375 114.413 79.3691 116.692C80.1293 118.776 81.1518 120.82 81.3849 123.05C81.6306 125.4 80.7533 127.597 79.1742 129.341C77.242 131.475 74.6472 132.797 72.0641 134.003C69.1961 135.342 66.1956 136.688 64.1642 139.187C63.9181 139.49 63.4557 139.096 63.7015 138.794C67.2357 134.445 73.2855 133.628 77.4806 130.125C79.4382 128.491 80.9078 126.265 80.8151 123.657C80.734 121.376 79.6814 119.267 78.8932 117.164C78.0655 114.956 77.6527 112.735 77.9495 110.381C78.2532 107.972 79.1513 105.661 80.249 103.503C82.7245 98.6357 86.1123 94.1672 89.9932 90.3045C94.4534 85.8644 99.6515 82.2091 105.362 79.4966C105.716 79.3288 105.912 79.9 105.56 80.0667Z" fill="white"/>
<path d="M82.8108 99.6179C81.2418 98.4872 80.1317 96.8436 79.6787 94.9807C79.2258 93.1177 79.4595 91.1567 80.3381 89.4479C80.517 89.1027 81.0696 89.3606 80.8904 89.7063C80.0693 91.296 79.8518 93.1227 80.2772 94.8566C80.7026 96.5906 81.7429 98.1175 83.2102 99.1619C83.5288 99.3892 83.1276 99.844 82.8108 99.6179Z" fill="white"/>
<path d="M78.8424 115.686C82.7739 115.12 86.3445 113.114 88.8421 110.068C89.0893 109.766 89.5517 110.16 89.3048 110.462C86.6997 113.626 82.9797 115.706 78.8871 116.287C78.497 116.342 78.4544 115.74 78.8424 115.686Z" fill="white"/>
<path d="M94.7555 86.6057C95.2701 87.1678 95.9183 87.5953 96.6419 87.8495C97.3655 88.1038 98.1418 88.1769 98.9012 88.0624C99.2904 88.0025 99.3326 88.6037 98.9459 88.6632C98.1064 88.7859 97.2491 88.7041 96.449 88.4249C95.6489 88.1458 94.9303 87.6777 94.3561 87.0617C94.297 87.0081 94.2609 86.9344 94.255 86.8555C94.2491 86.7765 94.2739 86.6984 94.3244 86.6369C94.3776 86.5767 94.4527 86.5397 94.5335 86.5339C94.6142 86.5281 94.694 86.5538 94.7555 86.6057Z" fill="white"/>
<path d="M133.077 117.268C132.835 117.312 132.593 117.357 132.349 117.405C129.099 118.016 125.905 118.887 122.799 120.007C122.557 120.09 122.313 120.178 122.075 120.268C114.619 123.047 107.751 127.166 101.821 132.415C99.4634 134.507 97.2704 136.772 95.2612 139.191C92.4867 142.532 89.7482 146.372 86.1226 148.55C85.7469 148.782 85.357 148.99 84.9552 149.174L64.0692 140.635C64.0316 140.593 63.9918 140.554 63.954 140.511L63.1042 140.208C63.199 140.076 63.3002 139.941 63.395 139.809C63.4497 139.733 63.5089 139.658 63.5636 139.581C63.6015 139.53 63.6397 139.48 63.671 139.432C63.6835 139.415 63.6963 139.399 63.7069 139.386C63.7382 139.339 63.7724 139.298 63.8017 139.255C64.3651 138.5 64.9349 137.747 65.5111 136.997C65.5131 136.993 65.5131 136.993 65.5197 136.99C69.9246 131.288 74.8512 125.898 80.4512 121.417C80.6198 121.282 80.79 121.142 80.9681 121.011C83.5037 119.005 86.2014 117.207 89.0343 115.634C90.5883 114.777 92.1853 113.999 93.8192 113.302C98.0444 111.508 102.529 110.381 107.11 109.961C116.242 109.125 125.543 111.177 132.546 116.831C132.726 116.976 132.9 117.119 133.077 117.268Z" fill="#F0F0F0"/>
<path d="M132.92 117.51C121.782 115.314 109.86 116.611 99.5409 121.33C97.3099 122.35 95.1368 123.576 93.3281 125.236C91.5186 126.896 90.3632 128.899 89.635 131.212C88.9692 133.327 88.5366 135.566 87.3608 137.484C86.1215 139.506 84.0788 140.74 81.7526 141.196C78.9065 141.753 76.027 141.269 73.2278 140.699C70.1199 140.066 66.9018 139.36 63.7532 140.15C63.3717 140.246 63.2433 139.657 63.6242 139.562C69.1023 138.187 74.432 141.124 79.9213 140.817C82.4827 140.673 85.0158 139.768 86.5349 137.631C87.8633 135.762 88.3113 133.453 88.9667 131.306C89.6548 129.052 90.6816 127.034 92.3569 125.33C94.0706 123.587 96.1996 122.275 98.3944 121.203C103.344 118.786 108.779 117.228 114.237 116.447C120.511 115.549 126.894 115.715 133.111 116.938C133.495 117.014 133.303 117.586 132.92 117.51Z" fill="white"/>
<path d="M102.813 119.621C102.251 117.788 102.369 115.817 103.145 114.06C103.922 112.304 105.306 110.877 107.051 110.034C107.405 109.864 107.689 110.398 107.335 110.568C105.708 111.35 104.418 112.679 103.699 114.316C102.979 115.953 102.877 117.79 103.411 119.494C103.526 119.865 102.928 119.99 102.813 119.621Z" fill="white"/>
<path d="M89.8293 130.096C93.3143 131.977 97.3906 132.494 101.245 131.544C101.627 131.45 101.756 132.039 101.374 132.133C97.3611 133.114 93.1202 132.567 89.4981 130.602C89.1529 130.414 89.4861 129.909 89.8293 130.096Z" fill="white"/>
<path d="M120.299 116.32C120.366 117.074 120.623 117.8 121.045 118.432C121.468 119.065 122.043 119.584 122.719 119.943C123.067 120.126 122.733 120.631 122.388 120.449C121.643 120.049 121.008 119.475 120.54 118.777C120.071 118.08 119.784 117.28 119.701 116.447C119.687 116.369 119.703 116.289 119.747 116.222C119.79 116.156 119.858 116.108 119.936 116.089C120.015 116.072 120.097 116.087 120.165 116.131C120.233 116.174 120.281 116.242 120.299 116.32Z" fill="white"/>
<path d="M93.2908 131.355C90.3658 117.416 86.7095 112.768 86.7095 112.768L85.3127 111.701L83.6329 110.415L83.641 110.249L83.2426 110.116L83.149 110.044L82.9957 109.928L82.971 109.954L82.9189 110.007L75.3178 107.461L65.6745 104.232L61.209 98.5118C60.4817 97.5801 59.5454 96.8271 58.4735 96.3118C57.4015 95.7964 56.223 95.5328 55.0304 95.5415L40.7691 95.6455C38.8408 95.6595 36.9876 96.384 35.5738 97.6765L26.2001 106.246L11.594 113.121L11.5694 113.097L11.416 113.205L9.15922 114.269L9.25235 114.746L7.85555 115.74C7.85555 115.74 4.19925 120.064 1.2742 133.035C0.5301 136.335 0.163826 143.415 0.0316215 152.138C0.0249809 152.58 0.107421 153.018 0.274147 153.428C0.440873 153.837 0.68856 154.21 1.0028 154.525C1.31705 154.839 1.69158 155.089 2.10463 155.259C2.51767 155.43 2.96099 155.518 3.4088 155.518H81.4226L91.1597 155.518C91.6072 155.517 92.0502 155.43 92.463 155.259C92.8758 155.089 93.2501 154.84 93.5643 154.526C93.8785 154.212 94.1263 153.839 94.2933 153.43C94.4602 153.021 94.5431 152.583 94.537 152.142C94.4078 142.649 94.0417 134.934 93.2908 131.355Z" fill="#3F3D56"/>
<path d="M103.3 36.674C100.265 36.674 97.3543 37.8623 95.2081 39.9776C93.0619 42.0929 91.8562 44.9619 91.8562 47.9534C91.8562 50.9449 93.0619 53.8138 95.2081 55.9291C97.3543 58.0444 100.265 59.2328 103.3 59.2328H188.587C191.622 59.2328 194.533 58.0444 196.679 55.9291C198.826 53.8138 200.031 50.9449 200.031 47.9534C200.031 44.9619 198.826 42.0929 196.679 39.9776C194.533 37.8623 191.622 36.674 188.587 36.674H103.3Z" fill="#E5E5E5"/>
<path d="M103.3 38.9568C100.879 38.9568 98.5575 39.9046 96.8457 41.5919C95.1338 43.2791 94.1721 45.5674 94.1721 47.9535C94.1721 50.3395 95.1338 52.6279 96.8457 54.3151C98.5575 56.0023 100.879 56.9502 103.3 56.9502H188.587C191.008 56.9502 193.33 56.0023 195.041 54.3151C196.753 52.6279 197.715 50.3395 197.715 47.9535C197.715 45.5674 196.753 43.2791 195.041 41.5919C193.33 39.9046 191.008 38.9568 188.587 38.9568H103.3Z" fill="white"/>
<path d="M50.1392 90.2609C60.4579 90.2609 68.8229 82.0164 68.8229 71.8463C68.8229 61.6761 60.4579 53.4316 50.1392 53.4316C39.8205 53.4316 31.4556 61.6761 31.4556 71.8463C31.4556 82.0164 39.8205 90.2609 50.1392 90.2609Z" fill="#9E616A"/>
<path d="M45.3596 89.3593C45.2798 89.1861 45.2002 89.0123 45.1208 88.8379C45.1514 88.8389 45.1817 88.8432 45.2123 88.844L45.3596 89.3593Z" fill="#2F2E41"/>
<path d="M30.936 54.2691C31.881 53.5261 32.9855 52.8425 34.1936 52.8809C35.4018 52.9193 36.627 53.9948 36.3767 55.1604C38.5958 51.2877 42.128 48.3092 46.3533 46.7477C50.5786 45.1861 55.227 45.1413 59.4824 46.6211C62.4852 47.6652 65.4299 49.7541 66.1197 52.818C66.2968 53.6044 66.3348 54.4668 66.8331 55.1055C67.4613 55.9107 68.6632 56.0929 69.6529 55.8096C69.6628 55.8068 69.6727 55.8039 69.6826 55.801C69.8498 55.7447 70.0302 55.7392 70.2007 55.7851C70.3711 55.831 70.5236 55.9263 70.6385 56.0586C70.7534 56.1909 70.8254 56.3541 70.8451 56.5271C70.8648 56.7002 70.8314 56.8751 70.7492 57.0292L69.8996 58.591C70.9706 58.8263 72.0835 58.8029 73.1434 58.523C73.3195 58.4775 73.5055 58.4867 73.676 58.5496C73.8465 58.6124 73.9931 58.7257 74.0957 58.8738C74.1983 59.022 74.2519 59.1979 74.2491 59.3773C74.2462 59.5566 74.1872 59.7308 74.08 59.8758C71.2784 63.6668 66.5979 66.1148 61.8216 66.0861C58.4268 66.0656 54.9972 64.9125 51.6933 65.6819C50.4152 65.9796 49.2209 66.5555 48.198 67.3674C47.1752 68.1793 46.3498 69.2066 45.7823 70.374C45.2148 71.5413 44.9197 72.8191 44.9186 74.1135C44.9175 75.4079 45.2105 76.6861 45.776 77.8544C44.761 76.7602 42.799 77.0193 41.7608 78.0921C40.7226 79.1649 40.4538 80.7661 40.5585 82.2451C40.7184 84.5071 41.6176 86.6385 42.5656 88.713C34.6178 88.4664 27.1004 82.9714 24.5701 75.5393C22.0291 68.0761 24.6921 59.1783 30.936 54.2691Z" fill="#2F2E41"/>
<path opacity="0.2" d="M18.4209 127.147L23.6612 155.248L26.8056 155.518L18.4209 127.147Z" fill="black"/>
<path opacity="0.2" d="M76.1442 125.027L70.9039 155.228L67.7595 155.518L76.1442 125.027Z" fill="black"/>
<path d="M35.4056 44.8117C34.4008 45.2252 33.3524 44.772 32.9127 43.7342C32.4663 42.6805 32.8832 41.6109 33.9041 41.1908C34.9251 40.7706 35.9548 41.2249 36.4084 42.2955C36.8553 43.3502 36.4429 44.3848 35.4056 44.8117ZM33.4809 39.1167L32.682 39.4455C32.4824 39.5267 32.2592 39.5311 32.0565 39.4578C31.8538 39.3845 31.6864 39.2389 31.5874 39.0498L31.5479 38.9737C30.6883 37.4457 30.5899 35.5887 31.2569 33.4571C31.8748 31.545 32.1315 30.2002 31.6153 28.9819C31.0186 27.5733 29.7442 27.1321 28.1192 27.7712C27.4889 28.0306 27.2883 28.0265 26.7923 28.5115C26.6844 28.6182 26.5558 28.7025 26.4142 28.7592C26.2725 28.816 26.1208 28.844 25.9679 28.8417C25.8201 28.8399 25.6742 28.8089 25.5388 28.7504C25.4035 28.6919 25.2814 28.6072 25.18 28.5012C24.9847 28.297 24.8752 28.0273 24.8738 27.7466C24.8724 27.4659 24.979 27.1952 25.1723 26.989C26.006 26.1289 27.0115 25.4484 28.1255 24.9905C31.617 23.5535 33.3747 25.675 34.179 27.5735C34.9658 29.4305 34.5232 31.1534 33.8121 33.3848C33.2162 35.239 33.2509 36.6129 33.9278 37.9789C33.9767 38.0822 34.0039 38.1942 34.0078 38.3081C34.0116 38.422 33.9921 38.5354 33.9504 38.6417C33.9086 38.748 33.8455 38.8448 33.7649 38.9265C33.6842 39.0081 33.5876 39.0728 33.4809 39.1167Z" fill="#66A9FC"/>
<path d="M122.139 53.3329H105.17C105.116 53.3333 105.063 53.3231 105.013 53.303C104.963 53.2829 104.918 53.2533 104.879 53.2159C104.841 53.1784 104.811 53.1339 104.79 53.0849C104.769 53.0358 104.759 52.9832 104.759 52.9301C104.759 52.8769 104.769 52.8243 104.79 52.7753C104.811 52.7262 104.841 52.6817 104.879 52.6442C104.918 52.6068 104.963 52.5772 105.013 52.5571C105.063 52.537 105.116 52.5269 105.17 52.5272H122.139C122.247 52.528 122.35 52.5707 122.426 52.6462C122.502 52.7216 122.545 52.8237 122.545 52.9301C122.545 53.0364 122.502 53.1385 122.426 53.2139C122.35 53.2894 122.247 53.3322 122.139 53.3329Z" fill="#66A9FC"/>
<path d="M143.665 53.4672H126.696C126.642 53.4675 126.589 53.4574 126.539 53.4373C126.489 53.4172 126.444 53.3876 126.405 53.3502C126.367 53.3127 126.337 53.2682 126.316 53.2191C126.295 53.1701 126.285 53.1175 126.285 53.0643C126.285 53.0112 126.295 52.9586 126.316 52.9095C126.337 52.8605 126.367 52.816 126.405 52.7785C126.444 52.7411 126.489 52.7115 126.539 52.6914C126.589 52.6713 126.642 52.6611 126.696 52.6615H143.665C143.719 52.6611 143.772 52.6713 143.822 52.6914C143.872 52.7115 143.918 52.7411 143.956 52.7785C143.994 52.816 144.024 52.8605 144.045 52.9095C144.066 52.9586 144.077 53.0112 144.077 53.0643C144.077 53.1175 144.066 53.1701 144.045 53.2191C144.024 53.2682 143.994 53.3127 143.956 53.3502C143.918 53.3876 143.872 53.4172 143.822 53.4373C143.772 53.4574 143.719 53.4675 143.665 53.4672Z" fill="#66A9FC"/>
<path d="M165.191 53.6015H148.222C148.114 53.6007 148.011 53.558 147.935 53.4825C147.859 53.407 147.816 53.305 147.816 53.1986C147.816 53.0923 147.859 52.9902 147.935 52.9147C148.011 52.8393 148.114 52.7965 148.222 52.7958H165.191C165.245 52.7954 165.299 52.8056 165.349 52.8257C165.398 52.8457 165.444 52.8754 165.482 52.9128C165.52 52.9502 165.551 52.9948 165.571 53.0438C165.592 53.0929 165.603 53.1455 165.603 53.1986C165.603 53.2518 165.592 53.3044 165.571 53.3534C165.551 53.4025 165.52 53.447 165.482 53.4844C165.444 53.5219 165.398 53.5515 165.349 53.5716C165.299 53.5917 165.245 53.6018 165.191 53.6015Z" fill="#66A9FC"/>
<path d="M186.717 53.7357H169.748C169.64 53.735 169.537 53.6922 169.461 53.6168C169.385 53.5413 169.342 53.4393 169.342 53.3329C169.342 53.2265 169.385 53.1245 169.461 53.049C169.537 52.9735 169.64 52.9308 169.748 52.9301H186.717C186.825 52.9308 186.928 52.9735 187.004 53.049C187.08 53.1245 187.123 53.2265 187.123 53.3329C187.123 53.4393 187.08 53.5413 187.004 53.6168C186.928 53.6922 186.825 53.735 186.717 53.7357Z" fill="#66A9FC"/>
<path d="M113.617 49.6256C115.359 49.6256 116.771 48.2339 116.771 46.5172C116.771 44.8005 115.359 43.4088 113.617 43.4088C111.876 43.4088 110.464 44.8005 110.464 46.5172C110.464 48.2339 111.876 49.6256 113.617 49.6256Z" fill="#66A9FC"/>
<path d="M135.273 49.6256C137.015 49.6256 138.427 48.2339 138.427 46.5172C138.427 44.8005 137.015 43.4088 135.273 43.4088C133.532 43.4088 132.12 44.8005 132.12 46.5172C132.12 48.2339 133.532 49.6256 135.273 49.6256Z" fill="#66A9FC"/>
<path d="M156.929 49.6256C158.671 49.6256 160.083 48.2339 160.083 46.5172C160.083 44.8005 158.671 43.4088 156.929 43.4088C155.188 43.4088 153.776 44.8005 153.776 46.5172C153.776 48.2339 155.188 49.6256 156.929 49.6256Z" fill="#66A9FC"/>
<path d="M178.585 49.6256C180.327 49.6256 181.739 48.2339 181.739 46.5172C181.739 44.8005 180.327 43.4088 178.585 43.4088C176.844 43.4088 175.432 44.8005 175.432 46.5172C175.432 48.2339 176.844 49.6256 178.585 49.6256Z" fill="#66A9FC"/>
</g>
<defs>
<clipPath id="clip0_71_1812">
<rect width="200" height="131" fill="white" transform="translate(0.03125 24.5177)"/>
</clipPath>
</defs>
</svg>
