<svg width="173" height="208" viewBox="0 0 173 208" fill="none" xmlns="http://www.w3.org/2000/svg">
<g clip-path="url(#clip0_71_1853)">
<path d="M109.735 61.9531H100.584V139.696C100.584 140.915 100.343 142.123 99.8741 143.25C99.4057 144.377 98.719 145.401 97.8534 146.263C96.9878 147.126 95.9601 147.81 94.8292 148.277C93.6982 148.744 92.486 148.984 91.2618 148.984H21.2932V149.073C21.2932 150.293 21.5343 151.5 22.0028 152.627C22.4713 153.754 23.1579 154.778 24.0235 155.641C24.8891 156.503 25.9168 157.187 27.0478 157.654C28.1787 158.121 29.3909 158.361 30.6151 158.361H109.735C110.96 158.361 112.172 158.121 113.303 157.654C114.434 157.187 115.461 156.503 116.327 155.641C117.193 154.778 117.879 153.754 118.348 152.627C118.816 151.5 119.057 150.293 119.057 149.073V71.2414C119.057 68.778 118.075 66.4155 116.327 64.6736C114.579 62.9317 112.208 61.9531 109.735 61.9531Z" fill="#F2F2F2"/>
<path d="M153.119 185.498C153.281 185.505 153.441 185.463 153.578 185.377C153.715 185.29 153.822 185.164 153.885 185.015C153.947 184.866 153.962 184.701 153.928 184.543C153.893 184.385 153.811 184.242 153.692 184.132L153.638 183.917C153.645 183.9 153.652 183.883 153.659 183.866C153.823 183.482 154.096 183.154 154.445 182.924C154.795 182.694 155.205 182.573 155.623 182.574C156.042 182.576 156.451 182.701 156.799 182.933C157.146 183.165 157.417 183.495 157.578 183.88C158.218 185.418 159.034 186.959 159.235 188.585C159.324 189.303 159.286 190.032 159.125 190.738C160.63 187.467 161.412 183.911 161.417 180.312C161.417 179.409 161.367 178.506 161.266 177.609C161.183 176.873 161.067 176.142 160.919 175.417C160.113 171.482 158.38 167.793 155.865 164.654C154.648 163.993 153.663 162.975 153.044 161.738C152.82 161.294 152.662 160.819 152.574 160.33C152.711 160.347 153.092 158.264 152.988 158.136C153.179 157.846 153.522 157.703 153.731 157.42C154.77 156.016 156.203 156.261 156.95 158.169C158.547 158.973 158.563 160.305 157.583 161.586C156.959 162.401 156.874 163.504 156.327 164.376C156.383 164.448 156.441 164.518 156.498 164.589C157.527 165.908 158.423 167.323 159.175 168.816C158.992 167.144 159.21 165.452 159.812 163.881C160.421 162.416 161.563 161.182 162.569 159.916C162.835 159.576 163.196 159.322 163.607 159.186C164.018 159.051 164.46 159.04 164.877 159.154C165.294 159.269 165.668 159.504 165.951 159.83C166.234 160.156 166.414 160.559 166.467 160.987C166.469 161.006 166.471 161.024 166.473 161.043C166.324 161.127 166.178 161.216 166.034 161.31C165.855 161.43 165.715 161.601 165.635 161.801C165.554 162.001 165.536 162.22 165.583 162.43C165.63 162.641 165.739 162.832 165.897 162.979C166.055 163.127 166.253 163.223 166.467 163.256L166.489 163.259C166.436 163.796 166.342 164.327 166.208 164.85C167.498 169.821 164.712 171.632 160.735 171.714C160.647 171.759 160.561 171.803 160.473 171.846C161.229 173.979 161.702 176.2 161.883 178.454C161.985 179.784 161.979 181.121 161.865 182.45L161.872 182.402C162.16 180.925 162.951 179.591 164.112 178.627C165.835 177.216 168.271 176.697 170.131 175.562C170.328 175.436 170.558 175.369 170.793 175.368C171.028 175.367 171.258 175.434 171.456 175.559C171.654 175.685 171.813 175.864 171.912 176.076C172.011 176.288 172.048 176.524 172.017 176.756L172.009 176.806C171.732 176.918 171.462 177.048 171.201 177.194C171.051 177.278 170.905 177.367 170.762 177.461C170.582 177.581 170.443 177.752 170.363 177.952C170.282 178.152 170.264 178.371 170.311 178.581C170.357 178.792 170.467 178.983 170.625 179.13C170.782 179.278 170.981 179.374 171.195 179.407L171.217 179.41C171.232 179.412 171.246 179.415 171.262 179.417C170.788 180.544 170.123 181.581 169.296 182.483C168.49 186.824 165.024 187.235 161.318 185.971H161.315C160.909 187.732 160.32 189.446 159.557 191.086H153.276C153.254 191.016 153.233 190.944 153.213 190.875C153.794 190.911 154.378 190.877 154.951 190.772C154.485 190.202 154.019 189.628 153.553 189.058C153.543 189.047 153.533 189.036 153.524 189.024C153.287 188.733 153.049 188.443 152.812 188.152L152.812 188.151C152.8 187.258 152.903 186.366 153.119 185.498Z" fill="#F2F2F2"/>
<path d="M83.9378 51.3779C84.1671 51.7241 84.4692 52.0165 84.8231 52.2349C85.177 52.4534 85.5743 52.5926 85.9875 52.643C86.4007 52.6934 86.8199 52.6537 87.2163 52.5268C87.6126 52.3999 87.9765 52.1887 88.2828 51.9078L101.342 57.7782L103.859 54.5784L88.2981 47.719C87.7852 47.2404 87.114 46.9658 86.4116 46.9473C85.7092 46.9289 85.0244 47.1678 84.4869 47.6188C83.9495 48.0698 83.5967 48.7015 83.4955 49.3944C83.3943 50.0872 83.5517 50.793 83.9378 51.3779Z" fill="#A0616A"/>
<path d="M139.98 55.0384L141.275 62.3513C141.336 62.6925 141.324 63.0425 141.241 63.3788C141.157 63.7152 141.004 64.0304 140.791 64.3044C140.579 64.5783 140.311 64.8049 140.005 64.9695C139.699 65.1341 139.362 65.2332 139.015 65.2604L117.008 66.9848L91.1387 55.4489L94.2284 49.6048L116.685 56.6905L139.98 55.0384Z" fill="#66A9FC"/>
<path d="M88.4735 49.7975H9.35313C4.2048 49.7975 0.03125 53.956 0.03125 59.0858V136.917C0.03125 142.047 4.2048 146.205 9.35313 146.205H88.4735C93.6218 146.205 97.7953 142.047 97.7953 136.917V59.0858C97.7953 53.956 93.6218 49.7975 88.4735 49.7975Z" fill="#F2F2F2"/>
<path d="M9.35307 51.7076C8.38065 51.7076 7.41775 51.8984 6.51936 52.2692C5.62096 52.64 4.80466 53.1835 4.11706 53.8686C3.42946 54.5537 2.88402 55.3671 2.51189 56.2622C2.13977 57.1574 1.94824 58.1168 1.94824 59.0857V136.917C1.94824 138.874 2.72839 140.751 4.11706 142.134C5.50574 143.518 7.38918 144.295 9.35307 144.295H59.8496C64.5809 144.295 69.2659 143.367 73.6371 141.563C78.0083 139.759 81.98 137.114 85.3256 133.781C88.6711 130.447 91.325 126.49 93.1356 122.134C94.9462 117.779 95.8781 113.111 95.8781 108.397V59.0857C95.8781 58.1168 95.6865 57.1574 95.3144 56.2622C94.9423 55.3671 94.3969 54.5537 93.7093 53.8686C93.0217 53.1835 92.2054 52.64 91.307 52.2692C90.4086 51.8984 89.4457 51.7076 88.4733 51.7076H9.35307Z" fill="white"/>
<path d="M71.031 75.3281H26.6224C26.2149 75.3281 25.8241 75.1668 25.536 74.8797C25.2478 74.5926 25.0859 74.2032 25.0859 73.7972C25.0859 73.3911 25.2478 73.0017 25.536 72.7146C25.8241 72.4275 26.2149 72.2662 26.6224 72.2662H71.031C71.4384 72.2662 71.8293 72.4275 72.1174 72.7146C72.4055 73.0017 72.5674 73.3911 72.5674 73.7972C72.5674 74.2032 72.4055 74.5926 72.1174 74.8797C71.8293 75.1668 71.4384 75.3281 71.031 75.3281Z" fill="#F2F2F2"/>
<path d="M71.031 107.975H26.6224C26.2149 107.975 25.8241 107.813 25.536 107.526C25.2478 107.239 25.0859 106.85 25.0859 106.444C25.0859 106.038 25.2478 105.648 25.536 105.361C25.8241 105.074 26.2149 104.913 26.6224 104.913H71.031C71.4384 104.913 71.8293 105.074 72.1174 105.361C72.4055 105.648 72.5674 106.038 72.5674 106.444C72.5674 106.85 72.4055 107.239 72.1174 107.526C71.8293 107.813 71.4384 107.975 71.031 107.975Z" fill="#F2F2F2"/>
<path d="M89.0645 91.6621H8.58919C8.18169 91.6621 7.79089 91.5008 7.50275 91.2137C7.21461 90.9266 7.05273 90.5372 7.05273 90.1311C7.05273 89.7251 7.21461 89.3357 7.50275 89.0486C7.79089 88.7615 8.18169 88.6002 8.58919 88.6002H89.0645C89.472 88.6002 89.8628 88.7615 90.1509 89.0486C90.4391 89.3357 90.601 89.7251 90.601 90.1311C90.601 90.5372 90.4391 90.9266 90.1509 91.2137C89.8628 91.5008 89.472 91.6621 89.0645 91.6621Z" fill="#F2F2F2"/>
<path d="M137.2 87.2708L129.183 104.289L160.022 101.177L153.585 84.8397L137.2 87.2708Z" fill="#A0616A"/>
<path d="M144.37 185.083L141.446 185.058L140.151 173.559L144.467 173.595L144.37 185.083Z" fill="#A0616A"/>
<path d="M135.004 189.716C135.001 190.061 135.136 190.393 135.379 190.64C135.622 190.886 135.953 191.026 136.3 191.029L142.113 191.078L143.131 189.022L143.505 191.088L145.698 191.108L145.144 183.739L144.381 183.689L141.268 183.475L140.264 183.408L140.247 185.493L135.577 188.649C135.402 188.767 135.258 188.926 135.158 189.112C135.059 189.298 135.005 189.505 135.004 189.716Z" fill="#2F2E41"/>
<path d="M112.011 185.096L109.223 184.216L111.377 172.846L115.492 174.143L112.011 185.096Z" fill="#A0616A"/>
<path d="M101.693 186.782C101.588 187.112 101.62 187.469 101.779 187.775C101.939 188.082 102.214 188.313 102.544 188.418L108.087 190.166L109.666 188.499L109.414 190.583L111.505 191.244L113.148 184.039L112.434 183.767L109.521 182.651L108.581 182.293L107.949 184.281L102.555 185.931C102.353 185.993 102.169 186.102 102.018 186.251C101.868 186.399 101.757 186.582 101.693 186.782Z" fill="#2F2E41"/>
<path d="M158.618 96.3907L130.577 101.51C130.577 101.51 126.08 104.862 127.283 106.063C128.486 107.263 128.673 107.077 127.882 107.865C127.092 108.653 125.383 109.706 125.366 110.395C125.349 111.084 112.801 141.994 112.801 141.994C112.801 141.994 114.195 141.299 113.149 142.341C112.104 143.383 112.104 144.244 112.104 144.244L107.224 177.071L115.149 177.536L122.909 147.608L140.218 119.649C140.218 119.649 141.936 144.581 142.008 146.24C142.08 147.898 143.125 145.814 142.08 147.898C141.034 149.982 140.337 148.592 141.034 149.982C141.731 151.371 138.523 179.653 138.523 179.653H145.756L161.271 121.032C161.271 121.032 166.79 104.272 158.618 96.3907Z" fill="#2F2E41"/>
<path d="M150.357 49.5008L139.125 48.3379L136.215 52.1024L132.825 53.9015C131.39 54.6629 130.206 55.8199 129.414 57.2341C128.622 58.6484 128.255 60.2601 128.358 61.8764L132.32 84.8397C132.32 84.8397 128.974 92.3481 131.274 94.2169C133.575 96.0857 129.496 100.714 134.412 98.3846C139.327 96.0551 160.553 98.7319 160.553 98.7319L156.022 85.8816L159.407 73.2546L159.78 62.6669C159.849 60.6885 159.26 58.7426 158.104 57.1327C156.948 55.5228 155.289 54.3393 153.387 53.7667L152.914 53.6241L150.357 49.5008Z" fill="#66A9FC"/>
<path d="M165.821 40.9209C165.894 44.0754 164.711 47.1299 163.012 49.8129C162.507 48.2466 161.599 46.8211 160.652 45.4622C161.129 48.4019 160.621 51.4163 159.205 54.0391C159.155 54.0746 159.104 54.1077 159.05 54.138C157.665 54.9684 155.908 55.3048 154.41 54.705C157.506 51.379 157.9 45.8683 155.304 42.1376C154.569 41.079 153.619 40.1428 153.163 38.9381C152.444 37.016 153.135 34.8996 153.571 32.8956C153.979 31.0304 154.05 28.8109 152.794 27.4439C152.929 27.2529 153.111 27.1008 153.324 27.0033C153.536 26.9058 153.771 26.8664 154.004 26.889C154.778 26.998 155.342 27.6686 155.701 28.3593C156.06 29.0499 156.297 29.8154 156.797 30.412C157.723 31.5285 159.301 31.7925 160.63 32.381C163.85 33.81 165.744 37.4107 165.821 40.9209Z" fill="#2F2E41"/>
<path d="M82.8665 191.104C82.8663 191.159 82.8769 191.213 82.8977 191.263C82.9185 191.313 82.949 191.359 82.9876 191.397C83.0261 191.435 83.0719 191.466 83.1223 191.487C83.1727 191.507 83.2267 191.518 83.2813 191.518H171.568C171.678 191.518 171.783 191.474 171.861 191.397C171.939 191.319 171.982 191.214 171.982 191.104C171.982 190.995 171.939 190.89 171.861 190.812C171.783 190.735 171.678 190.691 171.568 190.691H83.2813C83.2267 190.691 83.1727 190.702 83.1223 190.722C83.0719 190.743 83.0261 190.773 82.9876 190.812C82.949 190.85 82.9185 190.896 82.8977 190.946C82.8769 190.996 82.8663 191.05 82.8665 191.104Z" fill="#CCCCCC"/>
<path d="M166.516 114.034C168.249 114.034 169.653 112.635 169.653 110.909C169.653 109.182 168.249 107.783 166.516 107.783C164.784 107.783 163.379 109.182 163.379 110.909C163.379 112.635 164.784 114.034 166.516 114.034Z" fill="#66A9FC"/>
<path d="M138.718 39.1172C138.902 38.4755 137.634 42.398 138.246 42.4688C141.033 42.7874 144.859 44.446 146.8 45.2198C146.888 45.2097 146.975 45.1996 147.06 45.1869C147.268 45.1642 147.472 45.1313 147.672 45.0934C152.192 44.2412 153.931 37.3224 153.931 37.2592C153.931 36.9482 153.182 28.4054 152.001 28.279C151.691 28.2455 151.38 28.2286 151.068 28.2284H148.139C147.533 28.0983 146.919 28.0096 146.301 27.9629H146.296C140.4 27.5153 135.751 31.096 136.185 35.4531C136.188 35.4581 136.193 35.4632 136.196 35.4682C136.322 35.6554 136.432 35.8324 136.53 36.0018C136.625 36.1611 136.705 36.3128 136.774 36.457C137.312 37.5696 135.93 38.9697 136.846 39.231C138.064 39.5786 133.642 51.0024 138.464 51.0024C136.119 51.6668 138.21 40.8873 138.718 39.1172Z" fill="#2F2E41"/>
<path d="M143.981 45.8202C147.811 45.8202 150.915 42.7269 150.915 38.9111C150.915 35.0953 147.811 32.002 143.981 32.002C140.152 32.002 137.047 35.0953 137.047 38.9111C137.047 42.7269 140.152 45.8202 143.981 45.8202Z" fill="#A0616A"/>
<path d="M136.185 35.8298C136.301 35.8905 136.414 35.9461 136.53 36.0018C136.651 36.0599 136.772 36.1181 136.892 36.1712C139.214 37.2206 141.104 37.337 142.251 35.8298C142.282 35.0368 142.46 34.2564 142.778 33.5287C142.722 34.342 142.937 35.1509 143.39 35.8298H145.699C148.078 37.4027 149.299 37.5671 147.648 42.7308C147.188 44.1696 145.358 52.5423 146.078 53.784C146.286 53.7612 148.502 44.5905 148.702 44.5526C153.223 43.7004 156.095 36.2799 155.727 35.8602C155.729 34.6665 155.453 33.4885 154.922 32.4185C154.25 31.063 153.203 29.9275 151.904 29.1464C151.129 28.7722 150.322 28.47 149.492 28.2436C149.471 28.2385 149.453 28.2335 149.433 28.2284C149.178 28.1601 148.918 28.0969 148.659 28.0438C148.122 27.9309 147.58 27.849 147.034 27.7985C146.995 27.796 146.956 27.7935 146.92 27.7935C146.702 27.794 146.489 27.8525 146.301 27.9629C146.298 27.9629 146.298 27.9654 146.296 27.9654C146.161 28.0435 146.044 28.1476 145.951 28.2714C145.787 28.4797 145.698 28.7373 145.699 29.0022H143.128C143.033 29.0022 142.938 29.0047 142.842 29.0098C141.126 29.0682 139.494 29.7626 138.264 30.9571C137.035 32.1517 136.297 33.7603 136.196 35.4682C136.188 35.5896 136.185 35.7084 136.185 35.8298Z" fill="#2F2E41"/>
<path d="M151.346 33.6212C153.869 33.6212 155.914 31.5833 155.914 29.0694C155.914 26.5556 153.869 24.5177 151.346 24.5177C148.823 24.5177 146.778 26.5556 146.778 29.0694C146.778 31.5833 148.823 33.6212 151.346 33.6212Z" fill="#2F2E41"/>
<path d="M166.551 112.197C166.774 111.847 166.918 111.453 166.973 111.042C167.028 110.63 166.993 110.212 166.869 109.816C166.746 109.42 166.538 109.055 166.26 108.747C165.981 108.439 165.638 108.194 165.256 108.031L165.278 93.7565L161.317 92.7795L161.415 109.734C161.187 110.396 161.211 111.119 161.481 111.765C161.752 112.411 162.252 112.935 162.885 113.239C163.518 113.543 164.241 113.604 164.917 113.412C165.592 113.22 166.174 112.788 166.551 112.197Z" fill="#A0616A"/>
<path d="M146.936 59.761L153.1 55.587C153.387 55.3922 153.713 55.2596 154.055 55.1975C154.397 55.1354 154.748 55.1453 155.086 55.2265C155.424 55.3077 155.741 55.4584 156.017 55.669C156.293 55.8796 156.522 56.1454 156.689 56.4493L167.287 75.7449L167.327 103.984L160.711 103.571L157.995 80.2568L146.936 59.761Z" fill="#66A9FC"/>
<path d="M99.5954 123.804H33.7178C32.285 123.804 30.9108 124.371 29.8976 125.381C28.8844 126.39 28.3152 127.759 28.3152 129.187C28.3152 130.615 28.8844 131.984 29.8976 132.994C30.9108 134.003 32.285 134.57 33.7178 134.57H99.5954C101.028 134.57 102.402 134.003 103.416 132.994C104.429 131.984 104.998 130.615 104.998 129.187C104.998 127.759 104.429 126.39 103.416 125.381C102.402 124.371 101.028 123.804 99.5954 123.804Z" fill="white"/>
<path d="M99.5953 134.918H33.7178C32.1924 134.918 30.7296 134.314 29.651 133.239C28.5725 132.164 27.9666 130.707 27.9666 129.187C27.9666 127.667 28.5725 126.21 29.651 125.135C30.7296 124.06 32.1924 123.457 33.7178 123.457H99.5953C101.121 123.457 102.583 124.06 103.662 125.135C104.741 126.21 105.346 127.667 105.346 129.187C105.346 130.707 104.741 132.164 103.662 133.239C102.583 134.314 101.121 134.918 99.5953 134.918ZM33.7178 124.151C32.3773 124.151 31.0918 124.682 30.144 125.626C29.1962 126.571 28.6637 127.851 28.6637 129.187C28.6637 130.523 29.1962 131.804 30.144 132.748C31.0918 133.692 32.3773 134.223 33.7178 134.223H99.5953C100.936 134.223 102.221 133.692 103.169 132.748C104.117 131.804 104.649 130.523 104.649 129.187C104.649 127.851 104.117 126.571 103.169 125.626C102.221 124.682 100.936 124.151 99.5953 124.151H33.7178Z" fill="#66A9FC"/>
<path d="M103.48 147.296H74.408C74.0005 147.296 73.6097 147.135 73.3216 146.848C73.0335 146.561 72.8716 146.171 72.8716 145.765C72.8716 145.359 73.0335 144.97 73.3216 144.683C73.6097 144.396 74.0005 144.234 74.408 144.234H103.48C103.888 144.234 104.278 144.396 104.566 144.683C104.855 144.97 105.016 145.359 105.016 145.765C105.016 146.171 104.855 146.561 104.566 146.848C104.278 147.135 103.888 147.296 103.48 147.296Z" fill="#66A9FC"/>
</g>
<defs>
<clipPath id="clip0_71_1853">
<rect width="172" height="167" fill="white" transform="translate(0.03125 24.5177)"/>
</clipPath>
</defs>
</svg>
